<?xml version="1.0" encoding="UTF-8" standalone="no"?>
<svg
   xmlns:dc="http://purl.org/dc/elements/1.1/"
   xmlns:cc="http://creativecommons.org/ns#"
   xmlns:rdf="http://www.w3.org/1999/02/22-rdf-syntax-ns#"
   xmlns:svg="http://www.w3.org/2000/svg"
   xmlns="http://www.w3.org/2000/svg"
   xmlns:sodipodi="http://sodipodi.sourceforge.net/DTD/sodipodi-0.dtd"
   xmlns:inkscape="http://www.inkscape.org/namespaces/inkscape"
   viewBox="0 0 448 512"
   id="svg4244"
   version="1.1"
   inkscape:version="0.91 r13725"
   sodipodi:docname="google-plus-square.svg">
  <metadata
     id="metadata4252">
    <rdf:RDF>
      <cc:Work
         rdf:about="">
        <dc:format>image/svg+xml</dc:format>
        <dc:type
           rdf:resource="http://purl.org/dc/dcmitype/StillImage" />
        <dc:title></dc:title>
      </cc:Work>
    </rdf:RDF>
  </metadata>
  <defs
     id="defs4250" />
  <sodipodi:namedview
     pagecolor="#ffffff"
     bordercolor="#666666"
     borderopacity="1"
     objecttolerance="10"
     gridtolerance="10"
     guidetolerance="10"
     inkscape:pageopacity="0"
     inkscape:pageshadow="2"
     inkscape:window-width="652"
     inkscape:window-height="480"
     id="namedview4248"
     showgrid="false"
     inkscape:zoom="0.4609375"
     inkscape:cx="-64.542373"
     inkscape:cy="256"
     inkscape:window-x="654"
     inkscape:window-y="145"
     inkscape:window-maximized="0"
     inkscape:current-layer="svg4244" />
  <path
     d="M400 32H48C21.5 32 0 53.5 0 80v352c0 26.5 21.5 48 48 48h352c26.5 0 48-21.5 48-48V80c0-26.5-21.5-48-48-48zM164 356c-55.3 0-100-44.7-100-100s44.7-100 100-100c27 0 49.5 9.8 67 26.2l-27.1 26.1c-7.4-7.1-20.3-15.4-39.8-15.4-34.1 0-61.9 28.2-61.9 63.2 0 34.9 27.8 63.2 61.9 63.2 39.6 0 54.4-28.5 56.8-43.1H164v-34.4h94.4c1 5 1.6 10.1 1.6 16.6 0 57.1-38.3 97.6-96 97.6zm220-81.8h-29v29h-29.2v-29h-29V245h29v-29H355v29h29v29.2z"
     id="path4246"
     style="opacity:1;fill:#d53b2e;fill-opacity:1" />
</svg>
