<?xml version="1.0" encoding="UTF-8" standalone="no"?>
<svg
   xmlns:dc="http://purl.org/dc/elements/1.1/"
   xmlns:cc="http://creativecommons.org/ns#"
   xmlns:rdf="http://www.w3.org/1999/02/22-rdf-syntax-ns#"
   xmlns:svg="http://www.w3.org/2000/svg"
   xmlns="http://www.w3.org/2000/svg"
   xmlns:sodipodi="http://sodipodi.sourceforge.net/DTD/sodipodi-0.dtd"
   xmlns:inkscape="http://www.inkscape.org/namespaces/inkscape"
   viewBox="0 0 448 512"
   id="svg3386"
   version="1.1"
   inkscape:version="0.91 r13725"
   sodipodi:docname="instagram2.svg">
  <metadata
     id="metadata3394">
    <rdf:RDF>
      <cc:Work
         rdf:about="">
        <dc:format>image/svg+xml</dc:format>
        <dc:type
           rdf:resource="http://purl.org/dc/dcmitype/StillImage" />
        <dc:title></dc:title>
      </cc:Work>
    </rdf:RDF>
  </metadata>
  <defs
     id="defs3392" />
  <sodipodi:namedview
     pagecolor="#ffffff"
     bordercolor="#666666"
     borderopacity="1"
     objecttolerance="10"
     gridtolerance="10"
     guidetolerance="10"
     inkscape:pageopacity="0"
     inkscape:pageshadow="2"
     inkscape:window-width="874"
     inkscape:window-height="683"
     id="namedview3390"
     showgrid="false"
     inkscape:zoom="0.4609375"
     inkscape:cx="449.9536"
     inkscape:cy="256"
     inkscape:window-x="411"
     inkscape:window-y="79"
     inkscape:window-maximized="0"
     inkscape:current-layer="svg3386" />
  <path
     d="m 448,80 0,352 c 0,26.5 -21.5,48 -48,48 -117.33333,0 -234.66667,0 -352,0 C 21.5,480 0,458.5 0,432 L 0,80 C 0,53.5 21.5,32 48,32 l 352,0 c 26.5,0 48,21.5 48,48 z"
     id="path3388"
     style="fill:#d53b2e;fill-opacity:1"
     inkscape:connector-curvature="0"
     sodipodi:nodetypes="ssccsssss" />
  <path
     d="m 413.15917,177.46345 c -1.44493,-30.51366 -8.41463,-57.54247 -30.76865,-79.81149 -22.26898,-22.269021 -49.2978,-29.238715 -79.81145,-30.768648 -31.44862,-1.784921 -125.70948,-1.784921 -157.1581,0 -30.42866,1.444937 -57.457473,8.41463 -79.811492,30.683652 C 43.25546,119.83598 36.370763,146.8648 34.84083,177.37846 c -1.784921,31.44862 -1.784921,125.70948 0,157.1581 1.444937,30.51366 8.41463,57.54246 30.768648,79.81148 22.354019,22.26902 49.297832,29.23872 79.811492,30.76865 31.44862,1.78492 125.70948,1.78492 157.1581,0 30.51365,-1.44494 57.54247,-8.41463 79.81145,-30.76865 22.26903,-22.26902 29.23872,-49.29782 30.76865,-79.81148 1.78492,-31.44862 1.78492,-125.62448 0,-157.07311 z M 224.04252,99.861863 c -149.36168,274.758757 -74.68084,137.379377 0,0 z"
     id="path4"
     inkscape:connector-curvature="0"
     sodipodi:nodetypes="ccccsccsccccccc"
     style="fill:#d53b2e;fill-opacity:1" />
  <path
     d="m 224.04252,158.33928 c -54.05763,0 -97.66071,43.6031 -97.66071,97.66073 0,54.05762 43.60308,97.66071 97.66071,97.66071 54.05762,0 97.6607,-43.60309 97.6607,-97.66071 0,-54.05763 -43.60308,-97.66073 -97.6607,-97.66073 z m 0,161.15294 c -34.93347,0 -63.49221,-28.47375 -63.49221,-63.49221 0,-35.01846 28.47375,-63.49222 63.49221,-63.49222 35.01846,0 63.49221,28.47376 63.49221,63.49222 0,35.01846 -28.55875,63.49221 -63.49221,63.49221 z M 348.47705,154.34446 c 0,12.66445 -10.19955,22.77901 -22.779,22.77901 -12.66444,0 -22.779,-10.19955 -22.779,-22.77901 0,-12.57945 10.19955,-22.779 22.779,-22.779 12.57945,0 22.779,10.19955 22.779,22.779 z m 64.68212,23.11899 c -1.44493,-30.51367 -8.41463,-57.54248 -30.76865,-79.811501 -22.26898,-22.269021 -49.2978,-29.238708 -79.81145,-30.768637 -31.44862,-1.78492 -125.70948,-1.78492 -157.1581,0 -30.42866,1.44493 -57.45748,8.414626 -79.811499,30.683646 -22.35401,22.269012 -29.23871,49.297832 -30.76864,79.811502 -1.78492,31.44862 -1.78492,125.70948 0,157.1581 1.44493,30.51366 8.41463,57.54246 30.76864,79.81148 22.354019,22.26902 49.297839,29.23872 79.811499,30.76865 31.44862,1.78492 125.70948,1.78492 157.1581,0 30.51365,-1.44494 57.54247,-8.41463 79.81145,-30.76865 22.26903,-22.26902 29.23872,-49.29782 30.76865,-79.81148 1.78492,-31.44862 1.78492,-125.62448 0,-157.07311 z m -40.62821,190.81662 c -6.62971,16.65926 -19.46411,29.4937 -36.20838,36.20841 -25.0739,9.94456 -84.57128,7.64966 -112.28006,7.64966 -27.70879,0 -87.29117,2.2099 -112.28007,-7.64966 -16.65927,-6.62971 -29.493709,-19.46415 -36.20841,-36.20841 -9.94457,-25.07389 -7.64967,-84.57128 -7.64967,-112.28006 0,-27.70878 -2.2099,-87.29117 7.64967,-112.28009 6.629711,-16.65926 19.46414,-29.4937 36.20841,-36.2084 25.0739,-9.944562 84.57128,-7.649662 112.28007,-7.649662 27.70878,0 87.29116,-2.20991 112.28006,7.649662 16.65927,6.6297 29.49371,19.46414 36.20838,36.2084 9.94456,25.07391 7.64966,84.57131 7.64966,112.28009 0,27.70878 2.2949,87.29116 -7.64966,112.28006 z"
     id="path4-0"
     inkscape:connector-curvature="0"
     style="fill:#f9f9f9" />
  <path
     d="m 225.33066,317.49222 c -34.93347,0 -63.49221,-28.47375 -63.49221,-63.49221 0,-35.01846 28.47375,-63.49222 63.49221,-63.49222 35.01846,0 63.49221,28.47376 63.49221,63.49222 0,35.01846 -28.55875,63.49221 -63.49221,63.49221 z"
     id="path4-3"
     inkscape:connector-curvature="0"
     sodipodi:nodetypes="sssss"
     style="fill:#d53b2e;fill-opacity:1" />
</svg>
