<?xml version="1.0" encoding="UTF-8" standalone="no"?>
<!-- Created with Inkscape (http://www.inkscape.org/) -->

<svg
   xmlns:dc="http://purl.org/dc/elements/1.1/"
   xmlns:cc="http://creativecommons.org/ns#"
   xmlns:rdf="http://www.w3.org/1999/02/22-rdf-syntax-ns#"
   xmlns:svg="http://www.w3.org/2000/svg"
   xmlns="http://www.w3.org/2000/svg"
   xmlns:sodipodi="http://sodipodi.sourceforge.net/DTD/sodipodi-0.dtd"
   xmlns:inkscape="http://www.inkscape.org/namespaces/inkscape"
   width="100"
   height="60"
   viewBox="0 0 99.999998 59.999999"
   id="svg2"
   version="1.1"
   inkscape:version="0.91 r13725"
   sodipodi:docname="hwmo_logo_white.svg">
  <defs
     id="defs4" />
  <sodipodi:namedview
     id="base"
     pagecolor="#ffffff"
     bordercolor="#666666"
     borderopacity="1.0"
     inkscape:pageopacity="0.0"
     inkscape:pageshadow="2"
     inkscape:zoom="6.9745621"
     inkscape:cx="11.598677"
     inkscape:cy="26.402193"
     inkscape:document-units="px"
     inkscape:current-layer="layer1"
     showgrid="false"
     units="px"
     width="100px"
     inkscape:window-width="1280"
     inkscape:window-height="751"
     inkscape:window-x="0"
     inkscape:window-y="0"
     inkscape:window-maximized="1" />
  <metadata
     id="metadata7">
    <rdf:RDF>
      <cc:Work
         rdf:about="">
        <dc:format>image/svg+xml</dc:format>
        <dc:type
           rdf:resource="http://purl.org/dc/dcmitype/StillImage" />
        <dc:title></dc:title>
      </cc:Work>
    </rdf:RDF>
  </metadata>
  <g
     inkscape:label="Layer 1"
     inkscape:groupmode="layer"
     id="layer1"
     transform="translate(0,-992.3622)">
    <path
       style="fill:#ffffff"
       d="m 45.533278,1048.3732 c -0.335384,-0.024 -1.585453,-0.1059 -2.77793,-0.1839 -13.267034,-0.868 -25.239539,-4.6903 -33.3711008,-10.6541 -1.6004101,-1.1738 -3.9392884,-3.37 -5.0566326,-4.748 -3.2776939,-4.0428 -4.60978553,-8.4762 -3.85218491,-12.8205 0.62537741,-3.5863 2.40912841,-6.7713 5.55703451,-9.9224 2.6954101,-2.6981 5.7138328,-4.7767 10.0276508,-6.9053 6.234066,-3.076 13.584337,-5.16184 21.952424,-6.22954 6.34054,-0.80892 15.004994,-0.83792 21.478145,-0.072 4.118576,0.4875 3.658737,0.3749 3.658737,0.8958 0,0.5348 0.06087,0.5258 -1.749156,0.254 -1.897935,-0.2851 -7.420361,-0.7281 -9.9046,-0.7946 -2.682408,-0.072 -7.809876,0.1115 -10.77295,0.384 -14.495659,1.3356 -27.091753,6.20434 -34.0127061,13.14674 -1.7794278,1.785 -2.9535597,3.4011 -3.9377189,5.4202 -1.0867627,2.2295 -1.2990307,3.1094 -1.3789848,5.7158 -0.077328,2.5207 0.078234,3.5059 0.8734354,5.5315 3.652976,9.3047 17.0111854,16.7705 34.4010704,19.2267 4.493508,0.6346 5.576765,0.6933 12.727467,0.6889 7.278304,0 8.540101,-0.082 13.24863,-0.8188 12.274736,-1.9198 22.433979,-6.2323 28.673312,-12.1711 0.844974,-0.8044 2.583743,-2.8451 2.944761,-3.4563 0.208234,-0.3524 0.331336,-0.4205 0.761224,-0.4205 0.282049,0 0.512818,0.065 0.512818,0.1472 0,0.3023 -1.395786,2.1508 -2.564038,3.3956 -6.736739,7.178 -19.077519,12.2504 -33.887828,13.929 -3.68272,0.4174 -10.721675,0.657 -13.550879,0.4613 z m -37.8747076,-17.1878 0,-1.2873 0.3787899,0 c 0.3595093,0 0.3742586,0.024 0.2898122,0.4743 l -0.08898,0.4742 0.7074502,0 0.7074516,0 -0.055376,-0.4742 c -0.051627,-0.4424 -0.029758,-0.4743 0.3239478,-0.4743 l 0.3793159,0 0,1.2873 0,1.2873 -0.393633,0 c -0.3810144,0 -0.3912993,-0.018 -0.3209275,-0.542 l 0.072701,-0.5421 -0.7132275,0 -0.7132289,0 0.072701,0.5421 c 0.069007,0.5146 0.054442,0.542 -0.2870511,0.542 l -0.3597547,0 0,-1.2873 z m 2.9134386,1.2157 c 0,-0.039 0.182936,-0.4341 0.406526,-0.877 0.22359,-0.4428 0.406527,-0.8984 0.406527,-1.0123 0,-0.1269 0.119003,-0.2048 0.304894,-0.201 0.246527,0 0.401041,0.2124 0.807116,1.084 l 0.502222,1.0779 -0.40059,0 c -0.310251,0 -0.400589,-0.061 -0.400589,-0.2709 0,-0.2194 -0.09033,-0.2711 -0.474281,-0.2711 -0.383943,0 -0.474281,0.052 -0.474281,0.2711 0,0.1987 -0.09035,0.2709 -0.338772,0.2709 -0.186325,0 -0.338772,-0.032 -0.338772,-0.071 z m 1.353012,-0.9786 c -0.0011,-0.056 -0.05366,-0.183 -0.116703,-0.2824 -0.08715,-0.138 -0.132341,-0.1129 -0.188502,0.1018 -0.04901,0.1873 -0.0098,0.2823 0.116703,0.2823 0.104814,0 0.189645,-0.046 0.188502,-0.1017 z m 1.273315,0.2 c -0.157912,-0.464 -0.332129,-0.9503 -0.387148,-1.0808 -0.07724,-0.1831 -0.03401,-0.2372 0.189734,-0.2372 0.159372,0 0.322873,0.1073 0.363334,0.2372 0.04046,0.1311 0.154407,0.4201 0.253214,0.6437 l 0.179646,0.4066 0.177166,-0.6437 c 0.139116,-0.5055 0.23784,-0.6438 0.459727,-0.6438 0.222436,0 0.319431,0.1366 0.455825,0.6438 0.173093,0.643 0.17345,0.6433 0.362076,0.3048 0.103852,-0.1863 0.190975,-0.4759 0.193614,-0.6436 0.0038,-0.237 0.08347,-0.305 0.358071,-0.305 0.284217,0 0.333717,0.046 0.253236,0.2372 -0.05503,0.1311 -0.229236,0.6168 -0.387148,1.0808 -0.225478,0.6626 -0.34653,0.8444 -0.563902,0.847 -0.216492,0 -0.314534,-0.1366 -0.450051,-0.6404 -0.173093,-0.6431 -0.173449,-0.6434 -0.362076,-0.305 -0.103852,0.1863 -0.190974,0.476 -0.193614,0.6438 -0.0035,0.2254 -0.08427,0.304 -0.309696,0.3016 -0.251883,0 -0.35482,-0.15 -0.592008,-0.847 z m 2.658517,0.7966 c 0,-0.029 0.220197,-0.5174 0.489324,-1.0841 0.492109,-1.0363 0.878376,-1.3304 1.041829,-0.7933 0.0397,0.1311 0.257642,0.6183 0.484331,1.0841 l 0.412164,0.8469 -0.317212,0 c -0.20325,0 -0.342675,-0.098 -0.388087,-0.2709 -0.05429,-0.2077 -0.184836,-0.2711 -0.557839,-0.2711 -0.396628,0 -0.486967,0.05 -0.486967,0.2711 0,0.1987 -0.09035,0.2709 -0.338772,0.2709 -0.186324,0 -0.338771,-0.024 -0.338771,-0.054 z m 1.355088,-1.0224 c 0,-0.2272 -0.24033,-0.2835 -0.320321,-0.075 -0.04719,0.1227 4.51e-4,0.2024 0.121316,0.2024 0.109456,0 0.199012,-0.057 0.199012,-0.1268 z m 1.219578,-0.014 c 0,-0.9795 0.02516,-1.0841 0.260698,-1.0841 0.231861,0 0.265588,0.1198 0.304895,1.0843 0.04269,1.0475 0.03379,1.0844 -0.260698,1.0841 -0.290752,-2e-4 -0.304895,-0.05 -0.304895,-1.0843 z m 0.948561,0 c 0,-0.9938 0.02258,-1.0841 0.271019,-1.0841 0.248433,0 0.271016,0.091 0.271016,1.0841 0,0.9937 -0.02258,1.0841 -0.271016,1.0841 -0.248433,0 -0.271019,-0.091 -0.271019,-1.0841 z m 2.507996,0.9468 c 0.08579,-0.1394 -0.308334,-1.3148 -0.684333,-2.0419 l -0.204517,-0.3956 0.452143,0 c 0.429098,0 0.460996,0.035 0.62585,0.6778 0.09554,0.3728 0.222091,0.6478 0.281228,0.6113 0.05914,-0.036 0.188747,-0.3415 0.288021,-0.6778 0.167336,-0.5667 0.213515,-0.6113 0.633195,-0.6113 0.248981,0 0.419713,0.053 0.379402,0.1185 -0.04031,0.066 0.02751,0.4145 0.150733,0.776 l 0.224023,0.6575 0.229737,-0.6743 c 0.126348,-0.3711 0.203776,-0.7202 0.172044,-0.7761 -0.03172,-0.056 0.153685,-0.1017 0.412035,-0.1017 l 0.469725,0 -0.467162,1.1077 c -0.256942,0.6093 -0.436141,1.1885 -0.398227,1.2874 0.04909,0.1282 -0.06643,0.1796 -0.401092,0.1796 -0.367057,0 -0.470028,-0.056 -0.470028,-0.2509 0,-0.355 -0.276334,-1.1043 -0.40726,-1.1043 -0.06035,0 -0.187872,0.305 -0.283378,0.6777 -0.165224,0.6446 -0.19581,0.6775 -0.63031,0.6775 -0.273821,0 -0.422695,-0.056 -0.371829,-0.138 z m 3.545942,-0.9128 c 0.02151,-0.9495 0.0508,-1.0546 0.304895,-1.0936 0.264813,-0.04 0.281099,0.019 0.281099,1.0501 0,1.0437 -0.01394,1.0936 -0.304896,1.0936 -0.292018,10e-5 -0.303889,-0.045 -0.281098,-1.0501 z m 0.946058,0.014 c 0.0193,-0.9432 0.04772,-1.0441 0.304895,-1.0833 0.263599,-0.04 0.283603,0.02 0.283603,0.8539 l 0,0.8972 0.677543,-0.065 c 0.592736,-0.057 0.677545,-0.034 0.677545,0.186 0,0.2214 -0.116299,0.2512 -0.98244,0.2512 l -0.982439,0 0.0213,-1.0399 z m 2.079094,-0.052 0,-1.091 0.757113,0.031 c 0.989132,0.04 1.411827,0.3531 1.408953,1.0433 -0.0011,0.2742 -0.04687,0.5655 -0.101636,0.6474 -0.194564,0.2915 -0.700972,0.4608 -1.377983,0.4608 l -0.686451,0 0,-1.0911 z m 1.463495,0.5219 c 0.08944,-0.089 0.16261,-0.3312 0.16261,-0.5373 0,-0.3988 -0.314622,-0.6551 -0.804145,-0.6551 -0.24557,0 -0.279925,0.084 -0.279925,0.6775 0,0.6518 0.01445,0.6775 0.379426,0.6775 0.208683,0 0.452598,-0.074 0.542034,-0.1626 z m 0.975663,-0.5149 0,-1.0841 0.948562,0 c 0.833178,0 0.948561,0.031 0.948561,0.2512 0,0.2196 -0.08481,0.2429 -0.677543,0.1859 -0.562141,-0.054 -0.677545,-0.028 -0.677545,0.1554 0,0.1617 0.126557,0.2205 0.474281,0.2205 0.375662,0 0.47428,0.053 0.47428,0.2576 0,0.2138 -0.08294,0.2498 -0.488065,0.2121 -0.483204,-0.045 -0.487525,-0.04 -0.433736,0.4201 0.04797,0.4109 0.01791,0.4654 -0.257232,0.4654 -0.299113,0 -0.311563,-0.043 -0.311563,-1.0841 z m 2.168141,0 c 0,-0.9794 0.02516,-1.0841 0.260699,-1.0841 0.23186,0 0.265588,0.1199 0.304894,1.0844 0.04269,1.0473 0.03379,1.0844 -0.260698,1.0841 -0.290752,-3e-4 -0.304895,-0.05 -0.304895,-1.0844 z m 0.948562,0 0,-1.0841 0.813053,0 c 0.632374,0 0.873276,0.06 1.08407,0.271 0.350826,0.3508 0.342966,0.6118 -0.02622,0.8704 l -0.297231,0.2081 0.297231,0.3164 c 0.375637,0.3999 0.374068,0.5025 -0.0077,0.5013 -0.196359,0 -0.38707,-0.1452 -0.535735,-0.4064 -0.317643,-0.5582 -0.785471,-0.5578 -0.785471,0 0,0.3161 -0.06023,0.4064 -0.271018,0.4064 -0.248433,0 -0.271017,-0.091 -0.271017,-1.0839 z m 1.422842,-0.4066 c 0,-0.1296 -0.158145,-0.2185 -0.440403,-0.2457 -0.372123,-0.036 -0.440404,0 -0.440404,0.2457 0,0.2435 0.06828,0.2817 0.440404,0.2458 0.282258,-0.028 0.440403,-0.1157 0.440403,-0.2458 z m 0.972775,0.4406 0.02421,-1.0504 0.958222,-0.04 c 0.855221,-0.036 0.958226,-0.014 0.958226,0.2101 0,0.2136 -0.09822,0.2454 -0.677543,0.2188 -0.526726,-0.024 -0.677545,0.014 -0.677545,0.1728 0,0.1488 0.119087,0.192 0.440404,0.1598 0.36476,-0.036 0.440403,0 0.440403,0.227 0,0.2244 -0.07564,0.2634 -0.440403,0.2269 -0.375214,-0.038 -0.440404,0 -0.440404,0.2502 0,0.2692 0.05805,0.2903 0.677628,0.2474 0.572933,-0.039 0.677616,-0.014 0.677544,0.1901 -7.3e-5,0.2041 -0.137276,0.2373 -0.982523,0.2373 l -0.982438,10e-5 0.02421,-1.0502 z m 3.160243,-0.2373 0,-1.2874 0.542035,0 c 0.423721,0 0.543276,0.052 0.547715,0.2373 0.0032,0.131 0.114975,0.4422 0.248567,0.6928 l 0.242885,0.4558 0.313003,-0.5235 c 0.172151,-0.288 0.314373,-0.5998 0.316054,-0.6929 0.0018,-0.1031 0.192298,-0.1696 0.488625,-0.1697 l 0.485573,-3e-4 -0.04318,1.2877 c -0.0423,1.2615 -0.04984,1.2876 -0.372649,1.2876 -0.306961,0 -0.32956,-0.049 -0.330745,-0.7114 l -0.0011,-0.7114 -0.407996,0.7114 c -0.224397,0.3913 -0.436224,0.7114 -0.470725,0.7114 -0.0345,0 -0.217234,-0.305 -0.406071,-0.6775 -0.188834,-0.3727 -0.380556,-0.6775 -0.426048,-0.6775 -0.04549,0 -0.05341,0.3048 -0.01762,0.6775 0.06438,0.67 0.06077,0.6775 -0.321531,0.6775 l -0.386687,0 0,-1.2873 z m 3.733839,0.3426 c 0.256814,-0.5197 0.466934,-1.0075 0.466934,-1.0841 0,-0.077 0.152447,-0.1394 0.338772,-0.1394 0.213599,0 0.338771,0.077 0.338771,0.2071 0,0.1143 0.182937,0.5695 0.406527,1.0124 0.223589,0.443 0.406526,0.8376 0.406526,0.877 0,0.039 -0.152447,0.071 -0.338772,0.071 -0.251741,0 -0.338771,-0.072 -0.338771,-0.2793 0,-0.2397 -0.07177,-0.2732 -0.508159,-0.2371 -0.386679,0.032 -0.503659,0.099 -0.489338,0.2792 0.0138,0.1745 -0.08264,0.2372 -0.365302,0.2372 l -0.384122,0 0.466934,-0.9448 z m 0.922762,-0.2063 c -0.04273,-0.1115 -0.132286,-0.1687 -0.19901,-0.1269 -0.191329,0.1185 -0.141468,0.3301 0.0777,0.3301 0.120885,0 0.168508,-0.079 0.121317,-0.2025 z m 1.262141,0.1003 c 0.03022,-1.3164 0.214059,-1.4008 1.057027,-0.4849 l 0.601962,0.6541 0.0054,-0.6436 c 0.0046,-0.5516 0.04417,-0.6437 0.2764,-0.6437 0.248432,0 0.271017,0.091 0.271017,1.0841 0,1.0351 -0.0138,1.0838 -0.304895,1.0798 -0.199884,0 -0.462029,-0.2127 -0.761124,-0.6098 -0.582854,-0.7736 -0.749668,-0.7726 -0.662108,0 0.06235,0.5532 0.04194,0.6098 -0.219519,0.6099 -0.271283,2e-4 -0.286831,-0.061 -0.26414,-1.0502 z m 2.370853,0.9484 c 0.02538,-0.056 0.244585,-0.4824 0.487126,-0.9478 0.242543,-0.4654 0.425042,-0.8922 0.405554,-0.9485 -0.01949,-0.056 0.0935,-0.1213 0.251086,-0.1433 0.237208,-0.033 0.371303,0.138 0.779176,0.9964 0.270961,0.5707 0.492658,1.0616 0.492658,1.0911 0,0.029 -0.145336,0.054 -0.322967,0.054 -0.209005,0 -0.347976,-0.096 -0.393841,-0.2711 -0.05217,-0.1995 -0.184836,-0.271 -0.502772,-0.271 -0.317935,0 -0.450597,0.071 -0.502771,0.271 -0.04671,0.1785 -0.184837,0.2711 -0.405133,0.2711 -0.183843,0 -0.313494,-0.046 -0.288116,-0.1018 z m 1.380533,-1.0501 c -0.0429,-0.1115 -0.12593,-0.2034 -0.184513,-0.2034 -0.05858,0 -0.14161,0.092 -0.184513,0.2034 -0.05278,0.138 0.0068,0.2032 0.184513,0.2032 0.177671,0 0.237304,-0.066 0.184513,-0.2032 z m 1.392115,0.8708 c -0.504396,-0.3967 -0.504396,-1.2097 0,-1.6063 0.596014,-0.4689 2.015829,-0.2742 1.695689,0.2325 -0.08406,0.1338 -0.200804,0.1403 -0.490044,0.031 -0.297777,-0.1129 -0.448841,-0.099 -0.700177,0.065 -0.706359,0.4629 -0.104702,1.4164 0.660801,1.0473 0.301232,-0.1452 0.300182,-0.1477 -0.0666,-0.1568 -0.261668,0 -0.37265,-0.079 -0.37265,-0.2472 0,-0.1973 0.09956,-0.2303 0.580376,-0.192 0.528212,0.042 0.579975,0.078 0.575912,0.4074 -0.0085,0.693 -1.198573,0.958 -1.88331,0.4193 z m 2.217619,-0.6676 c 0,-0.5217 0.01525,-0.9943 0.03387,-1.0502 0.01864,-0.056 0.445485,-0.1115 0.948561,-0.1227 0.789409,-0.018 0.914685,0.014 0.914685,0.2173 0,0.2036 -0.09723,0.2283 -0.677544,0.1726 -0.562139,-0.054 -0.677544,-0.028 -0.677544,0.1554 0,0.1616 0.126558,0.2205 0.474281,0.2205 0.366299,0 0.474281,0.056 0.474281,0.2437 0,0.1989 -0.08746,0.2336 -0.474281,0.1885 -0.415434,-0.049 -0.474281,-0.018 -0.474281,0.2436 0,0.2746 0.05506,0.2951 0.677627,0.252 0.572934,-0.039 0.677618,-0.014 0.677545,0.1901 -7.2e-5,0.2032 -0.135631,0.2373 -0.948645,0.2373 l -0.948562,0 0,-0.9487 z m 2.16814,-0.1352 c 0,-1.0638 0.0063,-1.0841 0.336176,-1.0841 0.263727,0 0.405103,0.1352 0.656024,0.6293 l 0.319853,0.6294 0.258657,-0.6339 c 0.21545,-0.5279 0.311831,-0.6273 0.576954,-0.5954 0.301326,0.036 0.319387,0.095 0.338772,1.0886 0.01958,1.0049 0.0072,1.0502 -0.284417,1.0502 -0.267411,0 -0.305632,-0.071 -0.310885,-0.5759 l -0.006,-0.5759 -0.268267,0.508 c -0.147547,0.2796 -0.315773,0.5082 -0.373839,0.5082 -0.05807,0 -0.241039,-0.2591 -0.406606,-0.5759 l -0.301028,-0.576 0.05443,0.6437 c 0.05096,0.6027 0.03388,0.6438 -0.267701,0.6438 -0.312317,0 -0.322125,-0.034 -0.322125,-1.0841 z m 2.91344,0 0,-1.088 0.914684,0.024 c 0.755482,0.019 0.914685,0.063 0.914685,0.2495 0,0.1805 -0.128105,0.2248 -0.630226,0.2181 -0.389237,0 -0.652641,0.056 -0.688839,0.1609 -0.03975,0.1142 0.09758,0.1693 0.426965,0.1693 0.37717,0 0.485573,0.054 0.485573,0.2438 0,0.1989 -0.08746,0.2336 -0.47428,0.1886 -0.416985,-0.049 -0.474281,-0.02 -0.474281,0.2471 0,0.284 0.04594,0.2988 0.745297,0.2408 0.654708,-0.054 0.745299,-0.032 0.745299,0.1865 0,0.2179 -0.120327,0.2484 -0.982439,0.2484 l -0.982438,0 0,-1.088 z m 2.189065,0.038 c 0.02629,-1.3192 0.213401,-1.4048 1.060212,-0.4847 l 0.601962,0.6541 0.0054,-0.6437 c 0.0046,-0.543 0.04616,-0.6436 0.266081,-0.6436 0.231859,0 0.265588,0.1198 0.304894,1.0843 l 0.0442,1.0844 -0.372649,-3e-4 c -0.215823,-10e-5 -0.37265,-0.074 -0.37265,-0.1768 0,-0.098 -0.213426,-0.3836 -0.474281,-0.6364 l -0.47428,-0.4597 0,0.6362 c 0,0.5697 -0.032,0.6365 -0.304895,0.6366 -0.291766,0 -0.303993,-0.045 -0.283969,-1.0502 z m 3.08629,0.2032 c 0.0095,-0.8418 0.0072,-0.8467 -0.363161,-0.8213 -0.289415,0.019 -0.37265,-0.035 -0.37265,-0.2423 0,-0.245 0.08648,-0.2658 1.016317,-0.2443 0.880077,0.021 1.016315,0.056 1.016315,0.2679 0,0.1822 -0.09454,0.2376 -0.372648,0.2187 -0.369626,-0.025 -0.372639,-0.018 -0.371325,0.8213 0.0011,0.7679 -0.02499,0.8471 -0.280503,0.8471 -0.256385,0 -0.280973,-0.077 -0.272345,-0.8471 z m 2.889047,0.7006 c -0.38914,-0.2267 -0.67709,-0.9204 -0.585251,-1.4099 0.14839,-0.7909 0.977336,-1.2279 1.924221,-1.0144 0.656905,0.1482 0.99171,0.5871 0.995547,1.3052 0.0042,0.7834 -0.557441,1.2672 -1.464105,1.2614 -0.348299,0 -0.739984,-0.067 -0.870412,-0.1423 z m 1.412175,-0.6199 c 0.50146,-0.4538 0.135952,-1.2664 -0.569651,-1.2664 -0.439915,0 -0.707013,0.2816 -0.707013,0.7453 0,0.6966 0.746222,1.0012 1.276664,0.5211 z m 1.196372,-0.3177 0,-1.0841 0.813053,0 c 0.632374,0 0.873277,0.06 1.08407,0.2709 0.322944,0.323 0.344637,0.5833 0.06775,0.8132 -0.111797,0.093 -0.203263,0.2451 -0.203263,0.3387 0,0.093 0.09148,0.246 0.203263,0.3388 0.291813,0.2421 0.250608,0.4066 -0.101636,0.4056 -0.196358,0 -0.387071,-0.1453 -0.535733,-0.4065 -0.144593,-0.254 -0.340199,-0.4057 -0.523539,-0.4057 -0.248143,0 -0.283617,0.061 -0.233034,0.4066 0.05171,0.3523 0.01762,0.4066 -0.255638,0.4066 -0.303789,0 -0.315303,-0.041 -0.315303,-1.0841 z m 1.52643,-0.2166 c 0.199534,-0.1995 -0.09803,-0.461 -0.524611,-0.461 -0.369445,0 -0.459784,0.053 -0.459784,0.271 0,0.2169 0.09033,0.2711 0.451695,0.2711 0.248433,0 0.488149,-0.036 0.5327,-0.081 z m 1.134267,1.0198 c -0.487746,-0.3837 -0.49084,-1.0883 -0.007,-1.5722 0.313019,-0.3131 0.422716,-0.3416 1.034692,-0.2691 0.791434,0.093 0.818966,0.1101 0.702694,0.4129 -0.08254,0.2151 -0.21709,0.2136 -0.811738,-0.014 -0.08088,-0.031 -0.288254,0.06 -0.460831,0.199 -0.625565,0.5065 0.0658,1.4016 0.767454,0.9937 0.217419,-0.1269 0.202384,-0.1441 -0.125694,-0.1478 -0.263585,0 -0.372648,-0.074 -0.372648,-0.2422 0,-0.197 0.09949,-0.2303 0.575912,-0.1924 0.542465,0.043 0.575912,0.07 0.575912,0.4617 0,0.4705 -0.244667,0.6215 -1.03192,0.6368 -0.302154,0 -0.626707,-0.098 -0.846929,-0.2712 z m 1.946602,0.2241 c 0,-0.031 0.148662,-0.3525 0.330361,-0.7143 0.181699,-0.3617 0.393617,-0.8242 0.470927,-1.0274 0.161375,-0.4245 0.651015,-0.5079 0.778144,-0.1324 0.0654,0.1932 0.62225,1.4195 0.830643,1.8294 0.02842,0.056 -0.09875,0.1017 -0.282593,0.1017 -0.220296,0 -0.358422,-0.092 -0.405132,-0.2711 -0.05429,-0.2075 -0.184837,-0.2709 -0.55784,-0.2709 -0.396627,0 -0.486967,0.05 -0.486967,0.2709 0,0.1988 -0.09035,0.2711 -0.338772,0.2711 -0.186324,0 -0.338771,-0.025 -0.338771,-0.057 z m 1.355088,-1.0194 c 0,-0.2272 -0.240329,-0.2834 -0.320321,-0.075 -0.04719,0.1227 4.51e-4,0.2026 0.121316,0.2026 0.109456,0 0.199012,-0.057 0.199012,-0.1269 z m 1.219578,-0.014 c 0,-0.9835 0.02445,-1.084 0.263566,-1.084 0.14496,0 0.546183,0.2896 0.891609,0.6437 l 0.628042,0.6436 -0.06191,-0.6436 c -0.05632,-0.5856 -0.03589,-0.6437 0.226339,-0.6437 0.269973,0 0.28825,0.068 0.28825,1.084 0,1.328 -0.162924,1.3947 -1.073475,0.4404 l -0.614101,-0.6437 -0.0031,0.6437 c -0.0026,0.5524 -0.04162,0.6437 -0.27416,0.6437 -0.248433,0 -0.271016,-0.091 -0.271016,-1.0841 z m 2.574668,0 c 0,-1.0227 0.01585,-1.0808 0.283601,-1.04 0.257175,0.039 0.285585,0.1403 0.304895,1.0833 0.02038,0.9945 0.0079,1.0401 -0.283601,1.0399 -0.290755,0 -0.304895,-0.05 -0.304895,-1.0832 z m 0.948561,0.93 c 0,-0.085 0.213427,-0.4503 0.474281,-0.8134 0.260855,-0.3631 0.474281,-0.6972 0.474281,-0.7423 0,-0.046 -0.213426,-0.057 -0.474281,-0.026 -0.372728,0.043 -0.474281,0.014 -0.474281,-0.1682 0,-0.1802 0.158281,-0.2282 0.819047,-0.2481 0.450476,-0.014 0.877207,0.014 0.948292,0.056 0.07108,0.045 -0.123045,0.4515 -0.431406,0.9056 l -0.56065,0.8255 0.560919,-0.075 c 0.4595,-0.061 0.5628,-0.035 0.571311,0.149 0.01045,0.2265 0.714519,-1.1179 0.843268,-1.6103 0.09718,-0.3716 0.612652,-0.3452 0.762777,0.039 0.102291,0.2618 0.640433,1.4554 0.79426,1.7617 0.02807,0.056 -0.09936,0.1017 -0.283211,0.1017 -0.220296,0 -0.358423,-0.092 -0.405132,-0.271 -0.05429,-0.2076 -0.184837,-0.271 -0.557841,-0.271 -0.396628,0 -0.486967,0.05 -0.486967,0.271 0,0.252 -0.09035,0.271 -1.287333,0.271 -0.867001,0 -1.287334,-0.05 -1.287334,-0.1532 z m 3.252211,-0.9986 c 0,-0.1115 -0.05446,-0.2032 -0.12101,-0.2032 -0.06655,0 -0.156108,0.092 -0.19901,0.2032 -0.04751,0.124 -2.25e-4,0.2033 0.12101,0.2033 0.109456,0 0.19901,-0.092 0.19901,-0.2033 z m 1.557026,0.305 c 0.0014,-0.8401 -0.0018,-0.8468 -0.371324,-0.8214 -0.278114,0.02 -0.372648,-0.036 -0.372648,-0.2187 0,-0.2116 0.136244,-0.2474 1.016315,-0.2679 0.92983,-0.021 1.016316,-8e-4 1.016316,0.2442 0,0.206 -0.08318,0.2619 -0.360539,0.2424 -0.357669,-0.025 -0.360293,-0.019 -0.329189,0.8214 0.02983,0.8056 0.01595,0.8468 -0.284452,0.8468 -0.297192,0 -0.315728,-0.05 -0.314479,-0.8468 z m 1.515718,-0.2033 c 0.02042,-0.9015 0.05879,-1.0558 0.271017,-1.0891 0.222006,-0.035 0.247223,0.072 0.247223,1.0502 0,0.9987 -0.0225,1.089 -0.271018,1.0892 -0.249763,10e-5 -0.269152,-0.082 -0.247222,-1.0503 z m 1.189625,0.7176 c -0.700861,-0.7008 -0.194446,-1.8355 0.819211,-1.8355 0.627042,0 1.151826,0.4938 1.151826,1.0841 0,0.9684 -1.269926,1.4524 -1.971037,0.7514 z m 1.181192,-0.2982 c 0.333363,-0.3017 0.312362,-0.6637 -0.05337,-0.9199 -0.165641,-0.1157 -0.344221,-0.211 -0.396847,-0.211 -0.189596,0 -0.521561,0.4314 -0.521561,0.6777 0,0.2766 0.340138,0.6775 0.57492,0.6775 0.08197,0 0.260553,-0.1004 0.39685,-0.2243 z m 1.060861,-0.4532 c 0,-0.9836 0.02445,-1.0841 0.263565,-1.0841 0.144961,0 0.546184,0.2896 0.89161,0.6436 l 0.628043,0.6437 -0.06191,-0.6437 c -0.05632,-0.5855 -0.03589,-0.6436 0.22634,-0.6436 0.269971,0 0.288249,0.068 0.288249,1.0841 0,1.3278 -0.162924,1.3947 -1.073475,0.4403 l -0.614102,-0.6437 -0.0032,0.6437 c -0.0026,0.5523 -0.04162,0.6436 -0.274159,0.6436 -0.248433,0 -0.271018,-0.091 -0.271018,-1.0839 z m -78.215057,-3.5158 c -0.734173,-0.1427 -1.4290182,-0.6721 -1.7525661,-1.335 -0.3294129,-0.675 -0.4774739,-2.3421 -0.3301628,-3.7178 l 0.094681,-0.8841 0.4991058,0.2434 0.4991044,0.2433 0.08793,-1.3097 c 0.04837,-0.7203 0.212244,-2.194 0.364184,-3.2746 0.151937,-1.0808 0.314939,-2.3155 0.362225,-2.7441 0.0601,-0.5446 0.14421,-0.7792 0.279481,-0.7792 0.155043,0 0.193665,0.2761 0.19427,1.389 4.52e-4,0.7639 0.06473,1.6193 0.142901,1.9008 0.135087,0.4865 0.849349,1.4531 1.073738,1.4531 0.05788,0 0.402201,-0.808 0.765139,-1.7955 l 0.659887,-1.7955 0.02809,-2.7101 c 0.01544,-1.4907 0.03069,-2.8171 0.03388,-2.9474 0.0085,-0.3458 0.395503,-0.2905 0.473786,0.068 0.03664,0.1677 0.133958,0.9043 0.216237,1.6369 0.163365,1.4546 0.530825,2.7894 1.253112,4.5517 0.525278,1.2818 0.555357,1.2762 0.979251,-0.1827 0.180451,-0.6211 0.212979,-1.0557 0.143303,-1.9144 -0.07754,-0.9556 -0.05922,-1.1227 0.131073,-1.1957 0.121665,-0.047 0.27244,-0.053 0.335061,-0.014 0.167068,0.1032 1.138891,2.6533 1.548655,4.0635 0.194893,0.6709 0.455157,2.0304 0.578363,3.0212 0.280533,2.2561 0.482337,2.1013 0.580355,-0.445 0.06027,-1.5657 0.09508,-1.7654 0.314976,-1.8073 0.697713,-0.1338 0.999491,0.9008 0.761747,2.61 -0.158771,1.1415 -1.117366,4.6579 -1.424655,5.2259 -0.26288,0.486 -0.235058,0.1614 0.07138,-0.8326 0.612011,-1.9854 1.106917,-4.601 0.585983,-3.0971 -0.116173,0.3354 -0.38576,0.8505 -0.599091,1.1446 -0.213335,0.2943 -0.388474,0.6296 -0.389202,0.7454 -0.0024,0.3818 -0.633459,1.5594 -1.020503,1.9042 l -0.380153,0.3389 0.358024,-0.4816 c 0.369695,-0.4973 0.828756,-1.4727 0.736514,-1.5649 -0.02877,-0.029 -0.382967,0.1941 -0.787115,0.4952 -0.49381,0.3679 -0.853048,0.7788 -1.095315,1.2526 -0.198274,0.3879 -0.587194,0.9186 -0.864263,1.1794 -0.501625,0.4724 -0.501104,0.4707 0.123366,-0.3875 0.622981,-0.8562 0.782211,-1.2106 0.457738,-1.019 -0.932659,0.5507 -1.660846,1.4708 -1.837643,2.3217 -0.05802,0.2792 -0.148494,0.4924 -0.201056,0.4738 -0.05256,-0.018 -0.217524,-0.034 -0.366583,-0.034 -0.734596,0 0.02342,-1.8048 1.197792,-2.8519 0.766309,-0.6833 0.767077,-0.6847 0.758635,-1.4568 -0.0057,-0.527 -0.10671,-0.9621 -0.317369,-1.3678 -0.3308,-0.6372 -1.458463,-1.8666 -1.590693,-1.7345 -0.04386,0.045 -0.255253,0.7079 -0.469744,1.4756 -0.424056,1.5179 -0.517178,3.0622 -0.232168,3.8504 0.126125,0.3487 0.12264,0.4855 -0.0166,0.6533 -0.513816,0.6191 -0.890893,-0.1887 -0.881394,-1.8882 0.0059,-1.0459 0.08511,-1.4608 0.556572,-2.9135 0.302367,-0.9316 0.613213,-1.9073 0.690771,-2.168 0.07755,-0.261 0.147242,-0.3594 0.15485,-0.2189 0.01143,0.2098 0.586902,0.8964 0.751424,0.8964 0.02534,0 0.08562,-0.1677 0.133958,-0.3727 0.04834,-0.2049 0.246806,-0.7532 0.441057,-1.2185 l 0.353183,-0.8457 -0.697385,-1.6337 c -0.383562,-0.8985 -0.697385,-1.6918 -0.697385,-1.7628 0,-0.071 -0.06098,-0.1296 -0.135506,-0.1296 -0.07453,0 -0.135854,0.2591 -0.136272,0.5759 -4.51e-4,0.3167 -0.06428,0.8199 -0.141911,1.118 -0.18511,0.7107 -1.219296,3.9882 -1.368312,4.3363 -0.06382,0.149 -0.241744,0.7588 -0.39539,1.355 -0.229827,0.8919 -0.271793,1.4085 -0.236687,2.9135 0.02347,1.0062 -0.0059,1.9044 -0.06523,1.9959 -0.05935,0.092 -0.04432,0.2855 0.0334,0.4306 0.113358,0.2118 0.07203,0.3463 -0.209043,0.6804 -0.369372,0.4389 -0.37776,0.441 -1.165775,0.2877 z m 0.02347,-1.5033 c -0.312184,-0.612 -0.804761,-2.4407 -0.807965,-2.9996 -0.0021,-0.3649 -0.3073408,-0.7888 -0.5680671,-0.7888 -0.091322,0 -0.1233377,0.5627 -0.091949,1.6161 0.041201,1.3828 0.089189,1.6716 0.3322313,1.9989 0.3097838,0.4172 0.7983928,0.7161 1.1753908,0.7193 0.222903,0 0.220096,-0.038 -0.03964,-0.5459 z m 0.407702,-2.1285 c -0.0167,-0.8108 0.358177,-2.7745 0.730781,-3.8281 0.307152,-0.8685 0.274788,-1.117 -0.204003,-1.5669 -0.232987,-0.2188 -0.533048,-0.6377 -0.666804,-0.9306 l -0.243191,-0.5327 -0.108939,0.5327 c -0.05992,0.2929 -0.110487,1.5474 -0.112369,2.7876 -0.0031,2.0298 0.02234,2.2834 0.254714,2.5407 0.142223,0.1575 0.187861,0.2859 0.101636,0.2859 -0.08608,0 -0.156169,0.1073 -0.155754,0.2372 9.04e-4,0.3141 0.264413,1.2535 0.351487,1.2535 0.03767,0 0.06127,-0.3507 0.05245,-0.7793 z m 6.087258,-0.4262 c 0.310446,-0.2386 0.322285,-0.3029 0.243631,-1.3229 -0.07539,-0.9777 -0.744724,-3.3025 -1.040615,-3.6144 -0.122822,-0.1296 -0.681144,1.4305 -0.681144,1.903 0,0.1732 0.164598,0.6298 0.365775,1.0145 0.233635,0.4469 0.386378,0.9845 0.422812,1.488 0.06154,0.8508 0.167857,0.9329 0.689541,0.5318 z m 1.349941,-0.9407 0.592174,-0.5119 -0.0093,-1.1441 c -0.01296,-1.5994 -0.42449,-3.4693 -1.19853,-5.4463 -0.397215,-1.0145 -0.586324,-1.1565 -0.586324,-0.4404 0,0.2608 -0.17542,1.0197 -0.389826,1.6865 l -0.389826,1.2122 0.524496,1.5318 c 0.431403,1.26 0.524645,1.7183 0.525336,2.582 9.03e-4,1.23 0.07415,1.2717 0.931783,0.5302 z m 2.167649,-3.613 c 0.01241,-0.6014 -0.153539,-1.1856 -0.287564,-1.0123 -0.02717,0.035 -0.01976,0.6125 0.01645,1.2834 0.06908,1.2799 0.242757,1.1062 0.271131,-0.2711 z m -6.681978,-9.2521 c -0.181119,-0.1812 -0.23019,0.1408 -0.123142,0.808 l 0.115546,0.7202 0.04148,-0.7265 c 0.02282,-0.3996 0.0075,-0.7603 -0.03387,-0.8017 z m 63.071743,17.4004 c -2.284334,-0.6693 -4.098503,-2.7142 -4.824625,-5.4381 -0.349192,-1.31 -0.358884,-4.6266 -0.01723,-5.8946 0.630002,-2.3383 2.093398,-4.2461 3.95819,-5.1602 0.886349,-0.4343 1.031394,-0.4634 2.310679,-0.4634 1.303528,0 1.411123,0.022 2.390462,0.5068 1.820268,0.8997 3.247824,2.7485 3.877009,5.0213 0.176646,0.6381 0.232772,1.3798 0.232772,3.0767 0,2.1059 -0.02305,2.3062 -0.396615,3.446 -0.734556,2.2414 -2.235592,4.0029 -3.993447,4.6862 -0.941,0.3661 -2.670772,0.4732 -3.537202,0.2193 z m 2.932495,-3.8548 c 1.562543,-0.7973 2.4621,-2.7214 2.316686,-4.9556 -0.09846,-1.5127 -0.494514,-2.4947 -1.366183,-3.3876 -2.302988,-2.3589 -5.642017,-0.8409 -6.211775,2.824 -0.399053,2.5667 0.743996,4.9855 2.701151,5.7157 0.666609,0.2486 1.86809,0.1565 2.560121,-0.1965 z m -57.452199,3.8145 c -0.172658,-0.1727 -0.09021,-1.0962 0.112926,-1.2647 0.175845,-0.1461 0.203262,-1.1064 0.203262,-7.1196 0,-5.2042 -0.04002,-6.9641 -0.159242,-7.0038 -0.09136,-0.031 -0.163568,-0.3386 -0.169386,-0.7229 l -0.01018,-0.6695 1.761615,0 1.761614,0 0.04135,0.645 c 0.03112,0.4855 -0.01073,0.665 -0.169387,0.7259 -0.179477,0.068 -0.210746,0.4305 -0.210746,2.4378 l 0,2.3569 2.845685,0 2.845686,0 0,-2.3569 c 0,-2.0073 -0.03126,-2.3689 -0.210746,-2.4378 -0.158615,-0.061 -0.200513,-0.2404 -0.169386,-0.7259 l 0.04135,-0.645 1.761614,0 1.761615,0 0.04135,0.645 c 0.03112,0.4855 -0.01073,0.665 -0.169385,0.7259 -0.1869,0.072 -0.210746,0.8749 -0.210746,7.0984 0,6.1126 0.0262,7.0275 0.203263,7.0954 0.139297,0.053 0.203264,0.2712 0.203264,0.692 l 0,0.6141 -1.829369,0 -1.829369,0 0,-0.6775 c 0,-0.5119 0.04969,-0.6775 0.203263,-0.6775 0.173904,0 0.203264,-0.3915 0.203264,-2.7103 l 0,-2.7101 -2.845686,0 -2.845684,0 0,2.6279 c 0,2.2108 0.03225,2.6403 0.203264,2.7059 0.143411,0.054 0.203262,0.2788 0.203262,0.7598 l 0,0.6818 -1.739029,0 c -0.956466,0 -1.779683,-0.04 -1.829369,-0.091 z m 17.390295,-0.5833 c 0,-0.3748 0.06098,-0.6814 0.135506,-0.6814 0.07453,0 0.135505,-0.085 0.135505,-0.188 0,-0.1032 -0.759847,-3.2581 -1.688546,-7.0106 -1.133395,-4.5795 -1.759892,-6.8747 -1.90554,-6.9811 -0.154889,-0.1129 -0.204888,-0.3272 -0.174701,-0.7474 l 0.0423,-0.5887 1.795491,-0.038 1.795493,-0.038 0,0.6227 c 0,0.3425 -0.06379,0.7418 -0.141751,0.8875 -0.147422,0.2754 -0.136342,0.3293 1.082708,5.2732 0.284857,1.1551 0.557333,2.2706 0.605507,2.4786 0.109079,0.4709 0.289418,0.3777 0.398402,-0.2061 0.04552,-0.2437 0.459827,-1.9833 0.920699,-3.8657 0.718197,-2.9335 0.814001,-3.4673 0.670396,-3.7356 -0.09216,-0.1722 -0.147962,-0.553 -0.12402,-0.8461 l 0.04353,-0.5328 1.95085,-0.038 1.95085,-0.038 -0.07858,1.0391 c -0.07242,0.9577 -0.0099,1.3219 0.797894,4.645 0.482067,1.9832 0.91306,3.7255 0.957768,3.8717 0.08522,0.2786 0.380713,-0.6886 0.785026,-2.5695 0.112146,-0.5217 0.442047,-1.9241 0.733111,-3.1167 0.466468,-1.911 0.50589,-2.1945 0.33254,-2.3913 -0.125205,-0.1422 -0.181279,-0.4377 -0.154319,-0.8132 l 0.04234,-0.5897 1.727737,-0.038 1.727736,-0.038 0,0.7006 c 0,0.4474 -0.07009,0.7549 -0.194018,0.8509 -0.10671,0.082 -0.404817,1.0346 -0.662453,2.1154 -0.257639,1.0806 -0.998783,4.1548 -1.646987,6.8313 -1.037925,4.2856 -1.152911,4.8807 -0.963653,4.9866 0.151314,0.085 0.2149,0.3199 0.2149,0.7949 l 0,0.6747 -1.863245,-0.038 -1.863246,-0.038 -0.04105,-0.4913 c -0.0259,-0.3099 0.03663,-0.5691 0.169386,-0.7017 0.115742,-0.1157 0.210438,-0.2802 0.210438,-0.3655 0,-0.1802 -2.153311,-8.8383 -2.212985,-8.8979 -0.02202,-0.022 -0.211322,0.7057 -0.420686,1.6172 -0.209366,0.9114 -0.430288,1.7792 -0.49094,1.9282 -0.09994,0.2456 -0.773514,3.0982 -1.113531,4.7157 -0.100772,0.4794 -0.0933,0.7316 0.02842,0.959 0.09082,0.1697 0.145239,0.5173 0.120927,0.7725 l -0.04421,0.4638 -1.795491,0.038 -1.795492,0.038 0,-0.6814 z m 16.125547,0.014 c 0,-0.4644 0.06091,-0.6864 0.203264,-0.741 0.177032,-0.068 0.203262,-0.9774 0.203262,-7.0466 0,-6.0691 -0.02623,-6.9785 -0.203262,-7.0463 -0.143604,-0.056 -0.203264,-0.2792 -0.203264,-0.7634 l 0,-0.6853 2.066509,0.038 2.066509,0.038 0.01045,1.0841 c 0.0093,0.9733 0.09702,1.3262 0.858772,3.4555 0.466608,1.3042 1.008436,2.844 1.204064,3.4215 0.195628,0.5776 0.398278,1.0503 0.450333,1.0503 0.05204,0 0.277994,-0.5336 0.502089,-1.1857 0.224096,-0.6522 0.804021,-2.2834 1.288725,-3.6249 0.840695,-2.3268 0.877796,-2.4812 0.805687,-3.3539 l -0.07559,-0.9146 2.118938,0 2.11894,0 0,0.6818 c 0,0.481 -0.05985,0.7047 -0.203264,0.7598 -0.177033,0.068 -0.203263,0.9772 -0.203263,7.0464 0,6.0691 0.02623,6.9786 0.203263,7.0465 0.142356,0.054 0.203264,0.2766 0.203264,0.7411 l 0,0.663 -1.829369,0 -1.829369,0 0,-0.6685 c 0,-0.5494 0.04825,-0.6836 0.271017,-0.7544 0.263118,-0.084 0.271018,-0.2051 0.271018,-4.1692 0,-2.2638 -0.05151,-4.0258 -0.115616,-3.9545 -0.06359,0.071 -0.583109,1.4702 -1.154498,3.1099 -0.571392,1.6396 -1.304241,3.7434 -1.62856,4.6751 -0.461491,1.3256 -0.642892,1.6939 -0.834529,1.6939 -0.260058,0 -0.212994,0.124 -2.459305,-6.5035 -0.555523,-1.6391 -1.035901,-3.006 -1.067507,-3.0377 -0.0316,-0.032 -0.05747,1.8127 -0.05747,4.0982 0,4.0652 0.0059,4.1556 0.271018,4.1556 0.234883,0 0.271019,0.091 0.271019,0.6776 l 0,0.6775 -1.761615,0 -1.761615,0 0,-0.663 z m 34.859637,-0.4861 c -0.391281,-0.391 -0.711421,-0.8307 -0.711421,-0.9771 0,-0.1465 0.158763,-0.6569 0.352806,-1.1344 0.368448,-0.9068 0.370221,-1.0059 0.04838,-2.7017 -0.339607,-1.7894 -0.391123,-1.584 0.498603,-1.9891 1.093502,-0.4979 1.539377,-0.8493 1.539377,-1.2129 0,-0.1678 -0.06098,-0.3429 -0.135506,-0.389 -0.210977,-0.1297 -0.163419,-1.231 0.06126,-1.4175 0.299822,-0.2488 0.702096,-0.049 1.261169,0.6256 0.278821,0.3367 0.750863,0.7374 1.048982,0.8905 1.551112,0.797 3.470074,2.8232 3.182592,3.3604 -0.196239,0.3665 -0.162971,0.674 0.07297,0.674 0.224651,0 0.470938,0.5186 0.470938,0.9917 0,0.1631 0.182937,0.4692 0.406527,0.6802 0.658196,0.6212 0.555946,0.8195 -0.677883,1.3149 -0.549963,0.2208 -1.081948,0.3082 -2.032303,0.3337 -1.542543,0.042 -2.94234,0.3795 -3.319965,0.8015 -0.326734,0.3652 -1.081309,0.8981 -1.240498,0.8759 -0.06303,-0.014 -0.43473,-0.3358 -0.826011,-0.7267 z M 9.0814071,1021.63 c 0,-0.074 -0.083963,-0.1352 -0.186576,-0.1352 -0.239121,0 -0.7811601,-1.2498 -0.8668497,-1.9987 -0.052881,-0.4623 -0.023653,-0.5759 0.1480986,-0.5759 0.264155,0 0.8150685,0.723 1.0221222,1.3414 0.1904145,0.5687 0.2020542,1.5042 0.018719,1.5042 -0.074527,0 -0.1355056,-0.061 -0.1355056,-0.1352 z m 5.5558599,-3.1166 c -0.107476,-0.067 -0.15043,-0.1658 -0.09545,-0.2208 0.05499,-0.054 0.171106,-0.029 0.258058,0.059 0.08695,0.086 0.129903,0.1864 0.09545,0.2208 -0.03445,0.035 -0.150582,0.014 -0.258059,-0.058 z m 73.852294,-3.5233 c -0.111797,-0.073 -0.39646,-0.1324 -0.632585,-0.1338 -0.62891,0 -0.858013,-0.1282 -0.858013,-0.4707 0,-0.2598 0.129456,-0.3392 0.887432,-0.5444 0.860449,-0.2329 0.893277,-0.2325 1.079761,0.014 0.211771,0.2798 0.238798,0.5056 0.115533,0.9655 -0.08775,0.3274 -0.267859,0.379 -0.592135,0.1694 z m 2.563694,-0.413 c -0.752313,-0.1226 -0.802081,-0.198 -0.802081,-1.2211 0,-0.8375 -0.02853,-0.9405 -0.260473,-0.9405 -0.337947,0 -1.363622,-1.1966 -1.364755,-1.5923 -0.0011,-0.3683 0.446074,-0.8469 0.791174,-0.8469 0.314488,0 0.612468,0.3312 0.879181,0.9772 l 0.207624,0.5028 0.898026,-0.029 0.898024,-0.029 1.070092,1.1519 c 1.087149,1.1702 1.236017,1.465 0.886306,1.7552 -0.22844,0.1897 -2.514076,0.3828 -3.203118,0.2709 z m -5.273871,-1.9894 c -0.336532,-0.1282 -0.406497,-0.3448 -0.322154,-0.9978 0.07232,-0.5599 0.03818,-0.6704 -0.340766,-1.1019 -0.540612,-0.6158 -0.530932,-0.7826 0.04538,-0.7826 0.448458,0 1.224083,0.3552 1.747894,0.8007 0.27231,0.2315 0.766765,1.1747 0.766765,1.4625 0,0.4487 -1.262459,0.8607 -1.897123,0.6191 z m 0.836408,-4.0948 c -0.89191,-0.6151 -1.06727,-0.6848 -1.723138,-0.6848 -0.678582,0 -1.687937,-0.3307 -1.687937,-0.5531 0,-0.1129 0.91805,-0.9374 1.04424,-0.9374 0.04743,0 0.182515,0.085 0.300178,0.1886 0.346181,0.3052 2.037384,0.9267 2.274263,0.8358 0.124745,-0.047 0.338892,0.028 0.501527,0.179 0.156106,0.1442 0.71031,0.4075 1.231567,0.5851 0.576376,0.1961 0.963943,0.4067 0.989091,0.5373 0.05146,0.2672 -0.151242,0.3469 -1.148506,0.4515 -0.778132,0.082 -0.801163,0.074 -1.781285,-0.602 z m -5.24845,-2.5949 c -0.05047,-0.081 -0.304542,-0.124 -0.56461,-0.093 -0.40498,0.047 -0.52425,-0.014 -0.830925,-0.3935 -0.196941,-0.2469 -0.440907,-0.4488 -0.54215,-0.4488 -0.128676,0 -0.158487,-0.1018 -0.09906,-0.3389 0.07384,-0.2942 0.04011,-0.3386 -0.256326,-0.3386 -0.213086,0 -0.341354,0.077 -0.341354,0.2032 0,0.2095 -0.271202,0.255 -0.745299,0.1254 -0.334035,-0.092 -0.844953,-1.3548 -0.90004,-2.2258 l -0.03857,-0.6097 0.545256,0.04 c 0.401361,0.029 0.754988,-0.07 1.340005,-0.378 0.637962,-0.3357 0.824959,-0.3836 0.947877,-0.2434 0.288701,0.3292 0.777319,1.7413 0.702095,2.029 -0.112661,0.4308 0.272052,1.0916 0.578883,0.9942 0.209211,-0.067 0.262588,0.022 0.34145,0.5689 0.05142,0.3563 0.126195,0.785 0.166193,0.9527 0.07464,0.3129 -0.138726,0.423 -0.303438,0.1564 z m -11.035959,-5.1506 c -0.365243,-0.1577 -0.702646,-0.4256 -0.841332,-0.6678 -0.127352,-0.22244 -0.378192,-0.46024 -0.55743,-0.52824 -0.487958,-0.1857 -0.522201,-0.477 -0.117247,-0.9976 0.45794,-0.5889 1.65986,-1.0534 2.067187,-0.7991 0.14201,0.089 0.335253,0.1617 0.429427,0.1621 0.367617,0 1.188817,0.2909 1.386232,0.4883 0.261952,0.2619 0.269651,0.917 0.01324,1.1298 -0.107002,0.089 -0.233624,0.3394 -0.281379,0.55684 -0.101009,0.4598 -0.712969,0.9459 -1.171092,0.9301 -0.174818,0 -0.592257,-0.1296 -0.927641,-0.2744 z m -5.962388,-0.5412 c 0,-0.46724 0.748065,-1.34164 1.147735,-1.34164 0.124453,0 0.492168,-0.183 0.817143,-0.4065 0.324975,-0.2236 0.652503,-0.4066 0.72784,-0.4066 0.28501,0 0.306517,0.3022 0.0417,0.5859 -0.151343,0.1623 -0.31679,0.4626 -0.36766,0.6675 -0.07694,0.31 -0.165687,0.3727 -0.52769,0.3727 -0.301489,0 -0.605435,0.1458 -0.989288,0.47434 -0.681725,0.5835 -0.84978,0.5942 -0.84978,0.054 z"
       id="path3426"
       inkscape:connector-curvature="0" />
  </g>
</svg>
